<?xml version="1.0" encoding="UTF-8"?>
<svg id="Camada_1" data-name="Camada 1" xmlns="http://www.w3.org/2000/svg" viewBox="0 0 2000 428.81">
  <defs>
    <style>
      .cls-1 {
        fill: #d262b2;
      }
    </style>
  </defs>
  <g>
    <path class="cls-1" d="M1511.24,427.45h-32.17v-99.38h33.19c9.74,0,18.1,1.98,25.09,5.94,6.99,3.96,12.35,9.64,16.09,17.03,3.74,7.4,5.6,16.25,5.6,26.57s-1.88,19.25-5.65,26.69c-3.77,7.44-9.21,13.16-16.33,17.15-7.12,4-15.72,5.99-25.82,5.99ZM1494.06,414.35h16.35c7.57,0,13.86-1.43,18.88-4.3,5.01-2.86,8.77-7.02,11.26-12.47,2.49-5.45,3.74-12.11,3.74-19.96s-1.24-14.42-3.71-19.85c-2.47-5.44-6.15-9.56-11.04-12.38-4.89-2.81-10.95-4.22-18.2-4.22h-17.28v73.18Z"/>
    <path class="cls-1" d="M1592.66,328.07v99.38h-14.99v-99.38h14.99Z"/>
    <path class="cls-1" d="M1681.76,359.47c-.94-2.94-2.19-5.59-3.76-7.93-1.57-2.35-3.44-4.35-5.6-6.01-2.17-1.67-4.64-2.94-7.4-3.81-2.77-.87-5.8-1.31-9.1-1.31-5.6,0-10.64,1.44-15.14,4.32-4.5,2.88-8.05,7.1-10.65,12.64-2.61,5.55-3.91,12.33-3.91,20.36s1.31,14.86,3.93,20.43c2.62,5.57,6.21,9.79,10.77,12.67,4.56,2.88,9.75,4.32,15.58,4.32,5.4,0,10.12-1.1,14.15-3.3,4.03-2.2,7.15-5.32,9.36-9.34,2.22-4.03,3.32-8.78,3.32-14.25l3.88.73h-28.44v-12.37h39.06v11.31c0,8.35-1.77,15.58-5.31,21.71-3.54,6.13-8.43,10.86-14.66,14.2-6.23,3.33-13.35,4.99-21.37,4.99-8.99,0-16.88-2.07-23.66-6.21-6.78-4.14-12.06-10.02-15.84-17.64-3.79-7.62-5.68-16.67-5.68-27.15,0-7.92,1.1-15.04,3.3-21.35,2.2-6.31,5.3-11.67,9.29-16.08,3.99-4.42,8.7-7.79,14.12-10.14,5.42-2.35,11.35-3.52,17.78-3.52,5.37,0,10.38.79,15.02,2.38,4.64,1.58,8.78,3.83,12.42,6.74,3.64,2.91,6.66,6.37,9.05,10.36,2.39,3.99,4.01,8.42,4.85,13.27h-15.38Z"/>
    <path class="cls-1" d="M1731.83,328.07v99.38h-14.99v-99.38h14.99Z"/>
    <path class="cls-1" d="M1748.77,340.98v-12.91h76.91v12.91h-31.01v86.47h-14.94v-86.47h-30.96Z"/>
    <path class="cls-1" d="M1851.01,427.45h-15.92l35.76-99.38h17.32l35.76,99.38h-15.92l-28.09-81.33h-.78l-28.14,81.33ZM1853.68,388.53h51.63v12.62h-51.63v-12.62Z"/>
    <path class="cls-1" d="M1938.25,427.45v-99.38h14.99v86.47h45.03v12.91h-60.02Z"/>
  </g>
  <g>
    <g>
      <path class="cls-1" d="M399.11,0l96.36,263.48h-39.33l-29.21-80.55h-87l-29.02,80.55h-62l95.57-132.49L344.62,0h54.49ZM418.27,158.73l-36.81-100.87-36.91,100.87h73.73Z"/>
      <path class="cls-1" d="M582.16,226.05h140.84v37.43h-203.29l47.11-132.24L519.71,0h62.45v226.05Z"/>
      <path class="cls-1" d="M990.15,263.48l47.11-132.24L990.15,0h62.13v263.48h-62.13Z"/>
      <path class="cls-1" d="M208.19,64.23c8.97-16.26,14.6-34.62,16-54.13V1.72h-38.79c0,.36-.03.75-.1,1.11-6.69,63.33-58.08,113.35-122.04,117.96h-1.97V0H0l47.11,131.13L0,263.48h61.29v-118.81h1.7c64.09,4.49,115.61,54.56,122.31,117.98.07.36.1.75.1,1.11h38.79v-8.38c-1.41-19.5-7.04-37.86-16-54.13-22.55-40.87-55.39-68.59-105.39-68.59l-1.22-.83c44.42-5.09,86.44-31.06,106.61-67.62Z"/>
      <path class="cls-1" d="M966.36,38.64V.87h-219.09l47.11,131.25-47.11,130.95,219.09,1.29v-38.11h-126.42c-16.72,0-30.27-13.55-30.27-30.27l-.03-87.53h107.9v-25.58h-81.44c-15.69-1.3-28.26-13.61-29.91-29.19-.02-5.45-.04-16.67-.04-15.03h160.21Z"/>
      <path class="cls-1" d="M1941.22,117.78s-129.87.34-130.71.23c-13.41,0-25.64-9.34-32.84-19.15-7.2-9.81-9.37-20.08-9.37-20.08,0,0,2.66-11.72,11.38-21.95,8.12-9.54,21.89-17.63,33.33-17.63.13-.02,75.72-.52,75.72-.52,11.19,0,21.53,3.63,29.91,9.82,10.41,7.63,16.7,18.72,18.89,32.01v1.15h62.47c-.13-25.13-11.55-47.58-29.49-62.51-14.17-11.85-32.4-18.95-52.33-18.95-1.57,0-75.5,0-75.5,0-41,0-74.96,30.15-80.91,69.49-.64,4.13-.98,8.35-.98,12.66,0,38.67,24.75,61.9,51.83,61.9,0,0,133.59-.12,134.47-.12,14.56,0,27.92,9.9,35.65,20.65,6.88,9.58,8.94,20.15,8.94,20.15,0,0-2.93,23.73-28.02,36.89-6.22,2.74-13.09,4.28-20.32,4.28h-70.52c-11.19,0-21.53-3.63-29.91-9.82-8.97-6.57-15.66-16.07-18.74-27.07-.34-1.42-.66-2.85-.9-4.32-.07-.36-.23-1.84-.21-2.22h-62.59c.04,8.1,1.27,15.92,3.5,23.3,4.58,15.97,13.87,29.94,26.31,40.28,14.17,11.85,32.4,17.95,52.33,17.95,1.48,0,75.33-.02,75.48-.02v.02c41.02,0,74.97-29.15,80.93-68.49.64-4.13.98-8.35.98-12.66,0-20.48-9.01-65.27-58.78-65.27Z"/>
      <path class="cls-1" d="M1217.63.42c-3.75-.25-7.55-.42-11.48-.42h-127.77l47.11,131.24-47.11,132.24h127.77c5.33,0,10.49-.23,15.49-.69,63.71-9.59,112.56-64.55,112.56-130.93S1283.28,8.26,1217.63.42ZM1201.25,226.23l-60.18-.59V38.77l60.1.47c59.63,0,110.03,39.43,126.62,93.62-16.67,54.07-67,93.37-126.54,93.37Z"/>
    </g>
    <g>
      <path class="cls-1" d="M1736.12,132.42c0-.05,0-.11,0-.16s0-.11,0-.16c0-3.02-.14-6.01-.34-8.97,0-.1-.02-.2-.02-.31-4.7-67.13-59.87-120.31-127.83-121.85v-.08h-122.41v.08c-67.88,1.54-123.01,54.6-127.81,121.63-.01.16-.02.31-.04.47-.2,2.99-.34,5.99-.34,9.03,0,.05,0,.11,0,.16s0,.11,0,.16c0,3.02.14,6.01.34,8.97,0,.1.02.2.02.31,4.7,67.13,59.87,120.31,127.83,121.85v.08h122.41v-.08c67.88-1.54,123.01-54.6,127.81-121.63.01-.16.02-.31.04-.47.2-2.99.34-5.99.34-9.03ZM1604.7,225.19h-115.87c-59.27,0-109.36-39.19-125.85-93.05,16.56-53.74,66.6-92.81,125.77-92.81h115.87c59.27,0,109.36,39.19,125.85,93.05-16.56,53.74-66.6,92.81-125.77,92.81Z"/>
      <path class="cls-1" d="M1700.62,132.02c-24.02-30.56-61.33-50.19-103.21-50.19v.07c27.68,0,50.12,22.44,50.12,50.12s-22.44,50.12-50.12,50.12v.07c41.89,0,79.19-19.63,103.21-50.19Z"/>
      <path class="cls-1" d="M1392.72,132.02c24.02-30.56,61.33-50.19,103.21-50.19v.07c-27.68,0-50.12,22.44-50.12,50.12,0,27.68,22.44,50.12,50.12,50.12v.07c-41.89,0-79.19-19.63-103.21-50.19Z"/>
      <path class="cls-1" d="M1546.73,182.35c.05-27.79,22.59-50.31,50.39-50.32-27.7,0-50.17-22.36-50.37-50.02-.01,0-.02,0-.03,0-.21,27.54-22.48,49.8-50.02,50,0,.01,0,.02,0,.04,27.64.2,49.99,22.62,50.04,50.3Z"/>
    </g>
  </g>
</svg>