<?xml version="1.0" encoding="UTF-8"?>
<svg id="Camada_1" data-name="Camada 1" xmlns="http://www.w3.org/2000/svg" viewBox="0 0 2000 262.38">
  <defs>
    <style>
      .cls-1 {
        fill: #7cf067;
      }
    </style>
  </defs>
  <path class="cls-1" d="M1747.06,131.62c0-.05,0-.11,0-.16s0-.11,0-.16c0-3.01-.14-5.98-.34-8.94,0-.1-.02-.2-.02-.31-4.68-66.9-59.66-119.89-127.38-121.43v-.08h-121.98v.08c-67.65,1.53-122.58,54.41-127.36,121.21-.01.16-.02.31-.04.47-.2,2.98-.34,5.97-.34,9,0,.05,0,.11,0,.16s0,.11,0,.16c0,3.01.14,5.98.34,8.94,0,.1.02.2.02.31,4.68,66.9,59.66,119.89,127.38,121.43v.08h121.98v-.08c67.65-1.53,122.58-54.41,127.36-121.21.01-.16.02-.31.04-.47.2-2.98.34-5.97.34-9ZM1616.09,224.07h-115.47c-59.06,0-108.98-39.05-125.41-92.73,16.51-53.55,66.36-92.48,125.33-92.48h115.47c59.06,0,108.98,39.05,125.41,92.73-16.51,53.55-66.36,92.48-125.33,92.48Z"/>
  <path class="cls-1" d="M1719.38,131.13c-23.94-30.45-61.11-50.01-102.85-50.01v.07c27.58,0,49.94,22.36,49.94,49.94s-22.36,49.94-49.94,49.94v.07c41.74,0,78.91-19.56,102.85-50.01Z"/>
  <path class="cls-1" d="M1397.36,131.13c23.94-30.45,61.11-50.01,102.85-50.01v.07c-27.58,0-49.94,22.36-49.94,49.94,0,27.58,22.36,49.94,49.94,49.94v.07c-41.74,0-78.91-19.56-102.85-50.01Z"/>
  <path class="cls-1" d="M1558.33,181.28c.05-27.7,22.51-50.14,50.21-50.14-27.61,0-49.99-22.28-50.2-49.84-.01,0-.02,0-.03,0-.21,27.44-22.4,49.63-49.85,49.82,0,.01,0,.02,0,.04,27.54.19,49.82,22.54,49.86,50.12Z"/>
  <path class="cls-1" d="M392.32,0l95.44,260.96h-38.95l-28.93-79.78h-90.92l-28.74,79.78h-56.67l94.65-131.23L338.99,0h53.33ZM411.3,157.21l-36.46-99.91-36.56,99.91h73.02Z"/>
  <path class="cls-1" d="M571.27,223.89h143.12v37.08h-201.34l46.66-130.97L513.05,0h58.23v223.89Z"/>
  <path class="cls-1" d="M992.69,260.96l46.66-130.97L992.69,0h59.26v260.96h-59.26Z"/>
  <path class="cls-1" d="M206.2,63.61c8.88-16.11,14.46-34.29,15.85-53.61V1.7h-38.42c0,.36-.03.75-.1,1.1-6.63,62.73-57.52,112.27-120.88,116.83h-1.95V0H0l46.66,129.88L0,260.96h60.71v-117.67h1.68c63.48,4.44,114.51,54.03,121.14,116.85.06.36.1.75.1,1.1h38.42v-8.3c-1.39-19.32-6.97-37.5-15.85-53.61-22.33-40.48-54.86-67.93-104.38-67.94l-1.2-.82c44-5.04,85.61-30.76,105.59-66.97Z"/>
  <path class="cls-1" d="M961.43,39.04V0h-216.99l46.66,129.99-46.66,129.7,216.99,1.28v-37.08h-128.83c-16.56,0-29.98-13.42-29.98-29.98v-59.32l-.03-28.04h110.49v-25.34h-84.29c-15.54-1.29-27.99-13.48-29.62-28.91-.02-5.4-.04-12.43-.04-13.26h162.3Z"/>
  <path class="cls-1" d="M1941.78,116.65l-25.4-.14h-44.54v.06h-25.13l-31.57.09c-1.08,0-1.98-.08-2.81-.19-13.28,0-25.4-9.25-32.53-18.96-7.13-9.71-9.28-19.88-9.28-19.88,0,0,2.64-11.61,11.27-21.74,8.05-9.45,21.68-17.46,33.01-17.46.13-.02.23-.07.37-.09h1.17c.59-.03,1.17-.09,1.77-.09s1.18.06,1.77.09h49.97l19.94-.02c11.09,0,21.33,3.6,29.63,9.72,10.31,7.55,16.54,18.54,18.71,31.7v1.13h61.88c-.13-24.89-11.44-47.13-29.2-61.91-14.03-11.73-32.09-18.77-51.83-18.77-1.56,0-3.08.03-4.6.13h-65.1c-1.52-.1-3.05-.13-4.6-.13-.15,0-.3.02-.46.02v-.02c-40.62,0-74.26,29.86-80.15,68.83-.63,4.09-.97,8.27-.97,12.54,0,38.3,24.51,61.3,51.34,61.3l32.28.14h34.81v-.06h34.86l31.34-.07c.86-.07,1.72-.13,2.6-.13,14.42,0,27.65,9.81,35.31,20.46,6.82,9.49,8.85,19.96,8.85,19.96,0,0-2.9,23.5-27.75,36.54-6.16,2.72-12.96,4.24-20.13,4.24l-55.13.19-17.42-.19c-11.09,0-21.33-3.6-29.63-9.72-8.88-6.51-15.51-15.92-18.56-26.81-.34-1.4-.65-2.82-.89-4.28-.06-.36-.23-1.82-.2-2.2h-61.99c.04,8.02,1.26,15.76,3.47,23.07,4.54,15.81,13.74,29.65,26.06,39.9,14.03,11.73,32.09,17.77,51.83,17.77,1.56,0,3.08-.03,4.6-.13h65.1c1.52.1,3.05.13,4.6.13.15,0,.3-.02.46-.02v.02c40.62,0,74.26-28.87,80.15-67.83.63-4.09.97-8.27.97-12.54,0-20.29-8.93-64.65-58.22-64.65Z"/>
  <path class="cls-1" d="M1235.44.42c-3.71-.25-7.48-.41-11.37-.41h-126.55l46.66,129.99-46.66,130.97h126.55c5.28,0,10.39-.23,15.34-.69,63.1-9.49,111.48-63.93,111.48-129.68S1300.46,8.18,1235.44.42ZM1219.22,224.07h-29.15c-4.14,0-7.64-.21-10.68-.59h-22.42V38.4h22.37c4,0,7.9.2,11.73.51.7-.01,1.33-.05,2.07-.05h26.01c59.06,0,108.98,39.05,125.41,92.73-16.51,53.55-66.36,92.48-125.33,92.48Z"/>
</svg>